<mxfile host="app.diagrams.net" agent="Mozilla/5.0 (Windows NT 10.0; Win64; x64) AppleWebKit/537.36 (KHTML, like Gecko) Chrome/136.0.0.0 Safari/537.36" version="27.1.1">
  <diagram name="Trang-1" id="QyyAJWam372JLXTADFgJ">
    <mxGraphModel dx="1442" dy="579" grid="1" gridSize="10" guides="1" tooltips="1" connect="1" arrows="1" fold="1" page="0" pageScale="1" pageWidth="827" pageHeight="1169" math="0" shadow="0">
      <root>
        <mxCell id="0" />
        <mxCell id="1" parent="0" />
        <mxCell id="Sl7Spem9H-d3ncV3gGQV-1" value="" style="rounded=0;whiteSpace=wrap;html=1;strokeColor=default;dashed=1;fillColor=none;movable=1;resizable=1;rotatable=1;deletable=1;editable=1;locked=0;connectable=1;" parent="1" vertex="1">
          <mxGeometry x="-300" y="90" width="200" height="470" as="geometry" />
        </mxCell>
        <mxCell id="Sl7Spem9H-d3ncV3gGQV-3" value="&lt;font style=&quot;font-size: 19px;&quot;&gt;Sources&lt;/font&gt;" style="rounded=1;whiteSpace=wrap;html=1;strokeColor=none;" parent="1" vertex="1">
          <mxGeometry x="-260" y="60" width="120" height="60" as="geometry" />
        </mxCell>
        <mxCell id="bPwNBFr8PuWMEGsc4J3Q-13" style="edgeStyle=orthogonalEdgeStyle;rounded=0;orthogonalLoop=1;jettySize=auto;html=1;entryX=0;entryY=0.5;entryDx=0;entryDy=0;" parent="1" source="bPwNBFr8PuWMEGsc4J3Q-1" target="bPwNBFr8PuWMEGsc4J3Q-7" edge="1">
          <mxGeometry relative="1" as="geometry" />
        </mxCell>
        <mxCell id="bPwNBFr8PuWMEGsc4J3Q-14" style="edgeStyle=orthogonalEdgeStyle;rounded=0;orthogonalLoop=1;jettySize=auto;html=1;entryX=0;entryY=0.5;entryDx=0;entryDy=0;" parent="1" source="bPwNBFr8PuWMEGsc4J3Q-1" target="bPwNBFr8PuWMEGsc4J3Q-11" edge="1">
          <mxGeometry relative="1" as="geometry" />
        </mxCell>
        <mxCell id="bPwNBFr8PuWMEGsc4J3Q-15" style="edgeStyle=orthogonalEdgeStyle;rounded=0;orthogonalLoop=1;jettySize=auto;html=1;entryX=0;entryY=0.5;entryDx=0;entryDy=0;" parent="1" source="bPwNBFr8PuWMEGsc4J3Q-1" target="bPwNBFr8PuWMEGsc4J3Q-12" edge="1">
          <mxGeometry relative="1" as="geometry" />
        </mxCell>
        <mxCell id="bPwNBFr8PuWMEGsc4J3Q-1" value="" style="shape=image;verticalLabelPosition=bottom;labelBackgroundColor=default;verticalAlign=top;aspect=fixed;imageAspect=0;image=data:image/png,iVBORw0KGgoAAAANSUhEUgAAAgAAAAIACAYAAAD0eNT6AAAAAXNSR0IArs4c6QAAIABJREFUeAHt3V2sZWdZwPFTIlBIjPIhCeHDxs6cIviFjV4Q1Ao0UOzXzF47oFckmhqoVhP1ypuaeEEMEipUIomSmHjTCMyZArWggWAsMR3amb3OtNKPaaHihdJSvWK61z6vWdOZyUw77Zx3n33OXvt5fiSln+fMef/Pf6/3/6695py1Nf9DAAEEEEAAAQQQQAABBBBAAAEEEEAAAQQQQAABBBBAAAEEEEAAAQQQQAABBBBAAAEEEEAAAQQQQAABBBBAAAEEEEAAAQQQQAABBBBAAAEEEEAAAQQQQAABBBBAAAEEEEAAAQQQQAABBBBAAAEEEEAAAQQQQAABBBBAAAEEEEAAAQQQQAABBBBAAAEEEEAAAQQQQAABBBBAAAEEEEAAAQQQQAABBBBAAAEEEEAAAQQQQAABBBBAAAEEEEAAAQQQQAABBBBAAAEEEEAAAQQQQAABBBBAAAEEEEAAAQQQQAABBBBAAAEEEEAAAQQQQAABBBBAAAEEEEAAAQQQQAABBBBAAAEEEEAAAQQQQAABBBBAAAEEEEAAAQQQQAABBBBAAAEEEEAAAQQQQAABBBBAAAEEEEAAAQQQQAABBBBAAAEEEEAAAQQQQAABBBBAAAEEEEAAAQQQQAABBBBAAAEEEEAAAQQQQAABBBBAAAEEEEAAAQQQQAABBBBAAAEEEEAAAQQQQAABBBBAAAEEEEAAAQQQQAABBBBAAAEEEEAAAQQQQAABBBBAAAEEEEAAAQQQQAABBBBAAAEEEEAAAQQQQAABBBBAAAEEEEAAAQQQQAABBBBAAAEEEEAAAQQQQAABBBBAAAEEEEAAAQQQQAABBBBAAAEEEEAAAQQQQAABBBBAAAEEEEAAAQQQQAABBBBAAAEEEEAAAQQQQAABBBBAAAEEEEAAAQQQQAABBBCYm0A5duB1083Re2ft6JaubW7vNpt/nrXNpGubR7u2eaprm5Nd2xR/hGDwf6dn+sRs0tzXTZq7us3RZ2ft+E+7dvyBZ46P3l6O3PTSuWXygQgggAACwyVQjlz3ym7S3DBtm9tOb/RbNvcQm/uiIq0Pvnu7dvTXfRT0gThcm31lCCCAAAIvSqCUW18ybZur+tNe1zb9KXBRm4XPE5/l1qxtjk03R3/2zPHxL7yoaP4lAggggMAwCJTHPnTpbLP5SNc2J2z6omcRDkzb5qH+LYNy7OAbh2G5rwIBBBBA4CyB/jb/rG3+uGub/1rERd/nEA8XcKDr2uaL0+Pjd50Vz18ggAACCCyPQP/+ftc2j1/ggu12ffzb9UuZ8axt7j/1vEC59SXLM9+vjAACCCQlUO7/4GVd29xp43daX5YDpx4qnYxuLGXtkqQvQ8tGAAEE9pZANxndePq3dy3lBLisDcevO9jY+fdnjo9/eW9fBX41BBBAIBGB8vA1L+8mzadshIPdCDMHWde7Wf7j+h9N9JK0VAQQQGD3CZQHD7yma8fftPnb/AfuwOPTycH37P4rwq+AAAIIJCBQ2g++adqOHhj4hT/z6dfaz3/gcqv/xlP9HasEL09LRAABBHaHQJmM3tK1o+/a/J38V9CBe8vk4E/tzivDZ0UAAQQCE+hP/jZ/G/8Kbvzn3hH5wbQdXx34ZWppCCCAwGIJ9O/5u+1v81/xzf9MCHSztvn9xb5CfDYEEEAgIIFTT/t74O/M5uHP57+/vrI8ppvNR33PgIAXLEtCAIHFEfBb/Zz8g5z8LxQrn+5/WNXiXi0+EwIIIBCEQHd83AS++F9oQ/DPgpzwt+3t5uiz7gQEuWBZBgIILIbA6W/v+/S2L6TZNg7rjRNLm6NPLuZV47MggAACAQj43v5u/WeKv2k7+vMAL1tLQAABBHZG4PT3949zwnNaN8ttODCbjG/a2SvHRyOAAAIrTKAcue6VfqSv03+m0/85az05nYx/bYVfvr50BBBAYH4Cs3b8J+dcEJ0ct3FyxCtUMD3pOwbOf/3wkQggsKIETv+Ev+/Z0EJtaCKuMuJm7fhofydsRV/GvmwEEECgnsBss/mIzd/mz4GmdJujf6h/BfkIBBBAYAUJ9N8QpWubEy7+AoADzzqw9fV3lLKx3x8YcIAD8zpwsmysP1U29j9aNvYfKxv7v1I29n2qbKz/XtnYf3W5c/21g8iF6ebBX3fht/lz4FwHRmXrq1fO+8L3cTYNDnDgYg7Mysb+o+Xw+sfL4f3Xlq9ddulSgqBrm79z8T/34u+v+dCU7uiBUr70tou9iP17F3oOcGARDjxdNvZ9phxef+eefYfScs/4FV3b+K5/lQ+L2SBzRNLsW9eWcviKRby4fQ6bBAc4sF0HHiqH1n+n3PHWl+3qXYFu0txgM8uxmZnzfHOeffPd233R+u9c4DnAgUU68EQ5tP+WXXt7YNo2t9kY5tsYcMvDzUOBHoj0UCgHlujAI2Xj8vct/G7ArG0mNrI8G5lZzztrDwUu8eK3yBOVz+WEvroOHNr/j+XO9TcsJATKsQOv69pmy6Yw76bg41K5c/RGDwXaPFZ38zC7KLP7fv+7BnYcAdPN0XtTXcA96Oc7A+7QAQ8Fug3sTggHBuDAVtnY97HyN1e+dO4QmLWjWwSAUzwH6hzwUKANYAAbQJTTrHXs7M7M18sXLvvxuSKga5vbXfzrLv544dU74KFAESACODAQBzbL5/a9sToCunb8VRuaDY0D8zmwdffbnV52dnrBDz8OLMaBE+UL+y6vioBZO25d/Oe7+OOGm+8U6AQ4kBOgTXQxm+iqczxRPvfTr992BHRt87iNzEbGgfkd8FCgCBABHBiMA4f2t+WLb37VtiKga5snXfznv/hjh13vgIcCbQCD2QCchFf9FL+Ir//r2/rdAV3bnLSJ2cQ4sHMHPBQoAkQABwbkwF9c9C6AC//OL/wYYvisA75T4IAufos4Rfkc7iassgNb5fC+G140AmxeNi8OLNABPz54lS+YvnYbfjQHvv+i3zbYxX+BF/8dfoc5s4gxCw8Fug3sTggHhuPA+h0veBfAphNj0zHHYc3RQ4E2gOFsAGaRfhaH1t9/wQiwcQxr4zCPOPPwUKCNJ/3G4y2Fobyl8FD58r6XPy8CbDhxNhyzHNosPRRoAxRBHBiIA4fWbxYA3qf30wD30gEPBQ7lBOTrcBrP7sB3yx1vfdl5EeDUOLRTo68nmpMeChzICcgGmH0DtP7D+35bAOzlCdCv5Y6D7xTowis+ODAIB/Z9u5S1S85GQLTTlvW4gzBUBzwU6E6A98M5sHQHDl3+DgHgZO5kvucO9A8F/qKT0CBOQjaipW9EPFjWteDTAmDPL/5O5kM9me/p1+WhwGVd9Py6NlwOnHJg/amzvyVwTy9+Nl2nbg4UDwU6fTt9c2CpDhxev+bUXQAB4GTOgb13wHcKtAEsdQNwNyD73YBnf1Kgi//eX/wxx7x3wEOBIkAEcGApDhzef8QdALejvSWxVAc8FLiUi5/Tb/bTr/Vv7J+VO9726jWnUadRDizRAQ8FuhgLEg4sw4HDV7xLACz1BLjEjce6B3P3w0OBbgO7E8KBvXdg34cFgI1wMBth5jsRHgq0Aez9BoB5cuafEAACQAAMxAEPBdqQkm9I3grY07cC1u8SAAO5+Gc+/Vr7mbeCPBRoAxRBHNgzB+4XAALAHYAhOeChQKfAPT0F7tlmY67Dm+sjAmBIF39fixjpf3Lgt64t5fAVLpjDu2CaiZlEcuC/BYBN16Y7QAc8FOhk6lY4B3bZgR8KgAFe/L0nfuY98dx/9lCgDWCXN4BIp1lrmePujAAQAO4ADNYBDwXaAEUQB3bPAQEw2It/7tOvuyCn5++hQCe7OU52Ns3d2zQjsRUAAsAdgIE74KFAF/NIm461DMdnATDwi7+TsDshvQMeChzORdMGZhZRHBAAAsAdgBVxwEOBNp4oG491DMNlAbAiF393AtwJ6FoPBdo4hrFxmEOMOQgAAeAOwCo5cOxA2brrZz0Y58E4DnBgxw4IgFW6+PtaxUrvwNEbSvnS23b84neKi3GKM0dznNcBAWBTtamuogP3X1/Kl39GBDgFcoADczsgAFbx4u9rFi29A0dvLFt3//zcL/55Tw0+zomTAzEcEAA2U5vpijsw+8Y7S9lYFwJOghzgQJUDAmDFL/5+d4DfHXDq+wTce03Z+qefq3rxO8XFOMWZoznO64AAEADuAERxYDIqs3ve7dkAp0AhyIFtOSAAolz8rUPInOPA7N73la1/+aVS7nzLti4E854gfJzTJwdW1wEBcM5F0+10t9MjOtDHwOxff/VUEJz6HgJfemspd14hDJwSOZDcAQEgAJycOcABDnAgoQMCIOHQI55yrcndGw5wgAN1DggAAaD8OcABDnAgoQMCIOHQVXJdJeOFFwc4ENEBASAAlD8HOMABDiR0QAAkHHrEkrUmJzQOcIADdQ4IAAGg/DnAAQ5wIKEDAiDh0FVyXSXjhRcHOBDRAQEgAJQ/BzjAAQ4kdEAAJBx6xJK1Jic0DnCAA3UOCAABoPw5wAEOcCChAwIg4dBVcl0l44UXBzgQ0QEBIACUPwc4wAEOJHRAACQcesSStSYnNA5wgAN1DggAAaD8OcABDnAgoQMCIOHQVXJdJeOFFwc4ENEBASAAlD8HOMABDiR0QAAkHHrEkrUmJzQOcIADdQ4IAAGg/DnAAQ5wIKEDAiDh0FVyXSXjhRcHOBDRAQEgAJQ/BzjAAQ4kdEAAJBx6xJK1Jic0DnCAA3UOCAABoPw5wAEOcCChAwIg4dBVcl0l44UXBzgQ0QEBIACUPwc4wAEOJHRAACQcesSStSYnNA5wgAN1DggAAaD8OcABDnAgoQMCIOHQVXJdJeOFFwc4ENEBASAAlD8HOMABDiR0QAAkHHrEkrUmJzQOcIADdQ4IAAGg/DnAAQ5wIKEDAiDh0FVyXSXjhRcHOBDRAQEgAJQ/BzjAAQ4kdEAAJBx6xJK1Jic0DnCAA3UOCAABoPw5wAEOcCChAwIg4dBVcl0l44UXBzgQ0QEBIACUPwc4wAEOJHRAACQcesSStSYnNA5wgAN1DggAAaD8OcABDnAgoQMCIOHQVXJdJeOFFwc4ENEBASAAlD8HOMABDiR0QAAkHHrEkrUmJzQOcIADdQ4IAAGg/DnAAQ5wIKEDAiDh0FVyXSXjhRcHOBDRAQEgAJQ/BzjAAQ4kdEAAJBx6xJK1Jic0DnCAA3UOCAABoPw5wAEOcCChAwIg4dBVcl0l44UXBzgQ0QEBIACUPwc4wAEOJHRAACQcesSStSYnNA5wgAN1DggAAaD8OcABDnAgoQMCIOHQVXJdJeOFFwc4ENEBASAAlD8HOMABDiR0QAAkHHrEkrUmJzQOcIADdQ4IAAGg/DnAAQ5wIKEDAiDh0FVyXSXjhRcHOBDRAQEgAJQ/BzjAAQ4kdEAAJBx6xJK1Jic0DnCAA3UOCAABoPw5wAEOcCChAwIg4dBVcl0l44UXBzgQ0QEBIACUPwc4wAEOJHRAACQcesSStSYnNA5wgAN1DggAAaD8OcABDnAgoQMCIOHQVXJdJeOFFwc4ENEBASAAlD8HOMABDiR0QAAkHHrEkrUmJzQOcIADdQ4IAAGg/DnAAQ5wIKEDAiDh0FVyXSXjhRcHOBDRAQEgAJQ/BzjAAQ4kdEAAJBx6xJK1Jic0DnCAA3UOCAABoPw5wAEOcCChAwIg4dBVcl0l44UXBzgQ0QEBIACUPwc4wAEOJHRAACQcesSStSYnNA5wgAN1DggAAaD8OcABDnAgoQMCIOHQVXJdJeOFFwc4ENEBASAAlD8HOMABDiR0QAAkHHrEkrUmJzQOcIADdQ4IAAGg/DnAAQ5wIKEDAiDh0FVyXSXjhRcHOBDRAQEgAJQ/BzjAAQ4kdEAAJBx6xJK1Jic0DnCAA3UOCAABoPw5wAEOcCChAwIg4dBVcl0l44UXBzgQ0QEBIACUPwc4wAEOJHRAACQcesSStSYnNA5wgAN1DggAAaD8OcABDnAgoQMCIOHQVXJdJeOFFwc4ENEBASAAlD8HOMABDiR0QAAkHHrEkrUmJzQOcIADdQ4IAAGg/DnAAQ5wIKEDAiDh0FVyXSXjhRcHOBDRAQEgAJQ/BzjAAQ4kdEAAJBx6xJK1Jic0DnCAA3UOCAABoPw5wAEOcCChAwIg4dBVcl0l44UXBzgQ0QEBIACUPwc4wAEOJHRAACQcesSStSYnNA5wgAN1DggAAaD8OcABDnAgoQMCIOHQVXJdJeOFFwc4ENEBASAAlD8HOMABDiR0QAAkHHrEkrUmJzQOcIADdQ4IAAGg/DnAAQ5wIKEDAiDh0FVyXSXjhRcHOBDRAQEgAJQ/BzjAAQ4kdEAAJBx6xJK1Jic0DnCAA3UOCAABoPw5wAEOcCChAwIg4dBVcl0l44UXBzgQ0QEBIACUPwc4wAEOJHRAACQcesSStSYnNA5wgAN1DggAAaD8OcABDnAgoQMCIOHQVXJdJeOFFwc4ENEBASAAlD8HOMABDiR0QAAkHHrEkrUmJzQOcIADdQ4IAAGg/DnAAQ5wIKEDAiDh0FVyXSXjhRcHOBDRAQEgAJQ/BzjAAQ4kdEAAJBx6xJK1Jic0DnCAA3UOCAABoPw5wAEOcCChAwIg4dBVcl0l44UXBzgQ0QEBIACUPwc4wAEOJHRAACQcesSStSYnNA5wgAN1DggAAaD8OcABDnAgoQMCIOHQVXJdJeOFFwc4ENEBASAAlD8HOMABDiR0QAAkHHrEkrUmJzQOcIADdQ4IAAGg/DnAAQ5wIKEDAiDh0FVyXSXjhRcHOBDRAQEgAJQ/BzjAAQ4kdEAAJBx6xJK1Jic0DnCAA3UOCAABoPw5wAEOcCChAwIg4dBVcl0l44UXBzgQ0QEBIACUPwc4wAEOJHRAACQcesSStSYnNA5wgAN1DggAAaD8OcABDnAgoQMCIOHQVXJdJeOFFwc4ENEBASAAlD8HOMABDiR0QAAkHHrEkrUmJzQOcIADdQ4IAAGg/DnAAQ5wIKEDAiDh0FVyXSXjhRcHOBDRAQEgAJQ/BzjAAQ4kdEAAJBx6xJK1Jic0DnCAA3UOCAABoPw5wAEOcCChAwIg4dBVcl0l44UXBzgQ0QEBIACUPwc4wAEOJHRAACQcesSStSYnNA5wgAN1DggAAaD8OcABDnAgoQMCIOHQVXJdJeOFFwc4ENEBASAAlD8HOMABDiR0QAAkHHrEkrUmJzQOcIADdQ4IAAGg/DnAAQ5wIKEDAiDh0FVyXSXjhRcHOBDRAQEgAJQ/BzjAAQ4kdEAAJBx6xJK1Jic0DnCAA3UOCAABoPw5wAEOcCChAwIg4dBVcl0l44UXBzgQ0QEBIACUPwc4wAEOJHRAACQcesSStSYnNA5wgAN1DggAAaD8OcABDnAgoQMCIOHQVXJdJeOFFwc4ENEBASAAlD8HOMABDiR0QAAkHHrEkrUmJzQOcIADdQ4IAAGg/DnAAQ5wIKEDAiDh0FVyXSXjhRcHOBDRAQEgAJQ/BzjAAQ4kdEAAJBx6xJK1Jic0DnCAA3UOCAABoPw5wAEOcCChAwIg4dBVcl0l44UXBzgQ0QEBIACUPwc4wAEOJHRAACQcesSStSYnNA5wgAN1DggAAaD8OcABDnAgoQMCIOHQVXJdJeOFFwc4ENEBASAAlD8HOMABDiR0QAAkHHrEkrUmJzQOcIADdQ4IAAGg/DnAAQ5wIKEDAiDh0FVyXSXjhRcHOBDRAQEgAJQ/BzjAAQ4kdEAAJBx6xJK1Jic0DnCAA3UOCAABoPw5wAEOcCChAwIg4dBVcl0l44UXBzgQ0QEBIACUPwc4wAEOJHRAACQcesSStSYnNA5wgAN1DggAAaD8OcABDnAgoQMCIOHQVXJdJeOFFwc4ENEBASAAlD8HOMABDiR0QAAkHHrEkrUmJzQOcIADdQ4IAAGg/DnAAQ5wIKEDAiDh0FVyXSXjhRcHOBDRAQEgAJQ/BzjAAQ4kdEAAJBx6xJK1Jic0DnCAA3UOCAABoPw5wAEOcCChAwIg4dBVcl0l44UXBzgQ0QEBIACUPwc4wAEOJHRAACQcesSStSYnNA5wgAN1DggAAaD8OcABDnAgoQMCIOHQVXJdJeOFFwc4ENEBASAAlD8HOMABDiR0QAAkHHrEkrUmJzQOcIADdQ4IAAGg/DnAAQ5wIKEDAiDh0FVyXSXjhRcHOBDRAQEgAJQ/BzjAAQ4kdEAAJBx6xJK1Jic0DnCAA3UOCAABoPw5wAEOcCChAwIg4dBVcl0l44UXBzgQ0QEBIACUPwc4wAEOJHRAACQcesSStSYnNA5wgAN1DggAAaD8OcABDnAgoQMCIOHQVXJdJeOFFwc4ENEBASAAlD8HOMABDiR0QAAkHHrEkrUmJzQOcIADdQ4IAAGg/DnAAQ5wIKEDAiDh0FVyXSXjhRcHOBDRAQEgAJQ/BzjAAQ4kdEAAJBx6xJK1Jic0DnCAA3UOCAABoPw5wAEOcCChAwIg4dBVcl0l44UXBzgQ0QEBIACUPwc4wAEOJHRAACQcesSStSYnNA5wgAN1DggAAaD8OcABDnAgoQMCIOHQVXJdJeOFFwc4ENEBASAAlD8HOMABDiR0QAAkHHrEkrUmJzQOcIADdQ4IAAGg/DnAAQ5wIKEDAiDh0FVyXSXjhRcHOBDRAQEgAJQ/BzjAAQ4kdEAAJBx6xJK1Jic0DnCAA3UOCAABoPw5wAEOcCChAwIg4dBVcl0l44UXBzgQ0QEBIACUPwc4wAEOJHRAACQcesSStSYnNA5wgAN1DggAAaD8OcABDnAgoQMCIOHQVXJdJeOFFwc4ENEBASAAlD8HOMABDiR0QAAkHHrEkrUmJzQOcIADdQ4IAAGg/DnAAQ5wIKEDAiDh0FVyXSXjhRcHOBDRAQEgAJQ/BzjAAQ4kdEAAJBx6xJK1Jic0DnCAA3UOCAABoPw5wAEOcCChAwIg4dBVcl0l44UXBzgQ0QEBIACUPwc4wAEOJHRAACQcesSStSYnNA5wgAN1DggAAaD8OcABDnAgoQMCIOHQVXJdJeOFFwc4ENEBASAAlD8HOMABDiR0QAAkHHrEkrUmJzQOcIADdQ4IAAGg/DnAAQ5wIKEDAiDh0FVyXSXjhRcHOBDRAQEgAJQ/BzjAAQ4kdEAAJBx6xJK1Jic0DnCAA3UOCAABoPw5wAEOcCChAwIg4dBVcl0l44UXBzgQ0QEBIACUPwc4wAEOJHRAACQcesSStSYnNA5wgAN1DggAAaD8OcABDnAgoQMCIOHQVXJdJeOFFwc4ENEBASAAlD8HOMABDiR0QAAkHHrEkrUmJzQOcIADdQ4IAAGg/DnAAQ5wIKEDAiDh0FVyXSXjhRcHOBDRAQEgAJQ/BzjAAQ4kdEAAJBx6xJK1Jic0DnCAA3UOCAABoPw5wAEOcCChAwIg4dBVcl0l44UXBzgQ0QEBIACUPwc4wAEOJHRAACQcesSStSYnNA5wgAN1DggAAaD8OcABDnAgoQMCIOHQVXJdJeOFFwc4ENEBASAAlD8HOMABDiR0QAAkHHrEkrUmJzQOcIADdQ4IAAGg/DnAAQ5wIKEDAiDh0FVyXSXjhRcHOBDRAQEgAJQ/BzjAAQ4kdEAAJBx6xJK1Jic0DnCAA3UOCAABoPw5wAEOcCChAwIg4dBVcl0l44UXBzgQ0QEBIACUPwc4wAEOJHRAACQcesSStSYnNA5wgAN1DggAAaD8OcABDnAgoQMCIOHQVXJdJeOFFwc4ENGBPgBORlyYNXnBcoADHOAAB17QgR/2AfAkQC8IyG0xd0g4wAEOcCCiA//TB8DjAkAAcIADHOAAB1I5cGJt1o5bQ0819Igla01OaBzgAAcqHJi1zbG1rh1/VQAIAA5wgAMc4EAqB+7u3wK43dBTDV0lV1Sy14bXBgc4ENSBv1qbtaNbgi7ORmej4wAHOMABDlzAgdnm6Oa16ebovQJA4XKAAxzgAAfyODCdHHzPWrlv/BNd22wZfJ7Bm7VZc4ADHEjtwKw8eOA1a/3/Zm0zIUNqGdwiu8AtMq8JrwkOcCCiA7NJc9+pzb//v2k7+kTERVqTFy8HOMABDnDgfAembfOxswHQHR9fD9D5gPDAgwMc4AAHQjowGb3/bACUe8av6Nrm6ZALdWvX7X0OcIADHODAGQee7vf8swHQ/0XXNn8rANQuBzjAAQ5wILADk+Yz523+/d9M2+YqQw88dPV7pn79mQsc4EBaB6bHml95XgCUcutLurZ5VASIAA5wgAMc4EBIBx4uZe2S5wVA/w9m7fjDhh5y6Glrl8985gAHOPCsA7PJ+KYLbv79PywPX/PybtJ8DywvGA5wgAMc4EAoB57o9/gXDIBn7wI0f2TooYbu9O/9Tg5wgAPJHeh/7s+Lbv6n7gIcue6V3eboMREgAjjAAQ5wgAMRHBg9Uh770KUXDYD+P+gmzTWGHmHo1sBjDnCAAxwY/8a2Nv8z/1E3aTZA88LhAAc4wAEOrLQDnz+zr2/7z+X4+M1d2/zA4Fd68N73S/6+n9ev1y8HUjvwVGk/+KZtb/zn/odd21zrRwWnlkdACAgOcIADq+nAVteOD5y7p1f/9bRtblOQIoADHOAABziwOg5MJ83Hqzf8537Aqe8N0Db/ZvCrM3izMisOcIADiR3YbL5Rjo9f9tz9fK6/L0fGPzZrx0cJlVio1bwF5taluXGAA6kcmE2azXJ8/Oq5NvsX+qBydPyGrm0eFwEigAMc4AAHODBIB57oH+B/oX18R/+8HBtf0bXNdwx+kINPVbkc5CAHOMCB8xz4Tjn6gfUdbfIX++DywMHXz9rmGPDngbf5us3IAQ5wgANLcWDaNsfn/u1+F9v0n/vv+/cXOg8GLmXQwkt4cYADHODAWQf6B/4mv/Wq5+7Tu/r35WtX/ch0s/mo7xNAxLMiqn9RyAEOcGCvHNjqf5v+wp72n6cYuklzQ9c2T9kEhAAHOMDJOgVdAAADdklEQVQBDnBgTxz4327SjOfZsxf+MeWBgz/pZwfsydD3qiz9Ok4xHOAAB4bpwOf37P3+mlo4/a2DTyhAMcABDnCAAxxYqAOPdm3lT/Wr2cAX8d+We8avmG02f9i1zX8a/kKHr8aHWePmYi4c4MBuOvDErB3/QXnsQ5cuYo/ek8/Rfwvh2aT53a4dPSIEhAAHOMABDnCgyoGHZ5PxTUt9yG8RtfDMZHzl6R8q9H0CVAmwm1Xpczu1cIADHBiWA0937ejvp5OD7yll7ZJF7L+D+Rz9LYz+PYz+pxTN2ub+rm1mgkAQcIADHOBAUgdms0lz33Rz9JfdZPT+lbrNv9OyKN/+zddO2/HVs83Rzd3m6JNd23zl9A8derRrmye7tjmZVApVPqwqNw/z4AAH5nGg38P6vezR03vb3f1e1+95p075Dx54zU73UR+PAAIIIIAAAggggAACCCCAAAIIIIAAAggggAACCCCAAAIIIIAAAggggAACCCCAAAIIIIAAAggggAACCCCAAAIIIIAAAggggAACCCCAAAIIIIAAAggggAACCCCAAAIIIIAAAggggAACCCCAAAIIIIAAAggggAACCCCAAAIIIIAAAggggAACCCCAAAIIIIAAAggggAACCCCAAAIIIIAAAggggAACCCCAAAIIIIAAAggggAACCCCAAAIIIIAAAggggAACCCCAAAIIIIAAAggggAACCCCAAAIIIIAAAggggAACCCCAAAIIIIAAAggggAACCCCAAAIIIIAAAggggAACCCCAAAIIIIAAAggggAACCCCAAAIIIIAAAggggAACCCCAAAIIIIAAAggggAACCCCAAAIIIIAAAggggAACCCCAAAIIIIAAAggggAACCCCAAAIIIIAAAggggAACCCCAAAIIIIAAAggggAACCCCAAAIIIIAAAggggAACCCCAAAIIIIAAAggggAACCCCAAAIIIIAAAggggAACCCCAAAIIIIAAAggggAACCCCAAAIIIIAAAggggAACCCCAAAIIIIAAAggggAACCCCAAAIIIIAAAggggAACCCCAAAIIIIAAAggggAACCCCAAAIIIIAAAggggAACCCCAAAIIIIAAAggggAACCCCAAAIIIIAAAggggAACCCCAAAIIIIAAAggggAACCCCAAAIIIIAAAggggAACCGQm8P81IGYrl8k4gQAAAABJRU5ErkJggg==;" parent="1" vertex="1">
          <mxGeometry x="-238" y="190" width="76" height="76" as="geometry" />
        </mxCell>
        <mxCell id="bPwNBFr8PuWMEGsc4J3Q-16" style="edgeStyle=orthogonalEdgeStyle;rounded=0;orthogonalLoop=1;jettySize=auto;html=1;entryX=0;entryY=0.5;entryDx=0;entryDy=0;" parent="1" source="bPwNBFr8PuWMEGsc4J3Q-2" target="bPwNBFr8PuWMEGsc4J3Q-10" edge="1">
          <mxGeometry relative="1" as="geometry" />
        </mxCell>
        <mxCell id="bPwNBFr8PuWMEGsc4J3Q-17" style="edgeStyle=orthogonalEdgeStyle;rounded=0;orthogonalLoop=1;jettySize=auto;html=1;entryX=0;entryY=0.5;entryDx=0;entryDy=0;" parent="1" source="bPwNBFr8PuWMEGsc4J3Q-2" target="bPwNBFr8PuWMEGsc4J3Q-9" edge="1">
          <mxGeometry relative="1" as="geometry" />
        </mxCell>
        <mxCell id="bPwNBFr8PuWMEGsc4J3Q-18" style="edgeStyle=orthogonalEdgeStyle;rounded=0;orthogonalLoop=1;jettySize=auto;html=1;entryX=0;entryY=0.5;entryDx=0;entryDy=0;" parent="1" source="bPwNBFr8PuWMEGsc4J3Q-2" target="bPwNBFr8PuWMEGsc4J3Q-8" edge="1">
          <mxGeometry relative="1" as="geometry" />
        </mxCell>
        <mxCell id="bPwNBFr8PuWMEGsc4J3Q-2" value="" style="shape=image;verticalLabelPosition=bottom;labelBackgroundColor=default;verticalAlign=top;aspect=fixed;imageAspect=0;image=data:image/png,iVBORw0KGgoAAAANSUhEUgAAAgAAAAIACAYAAAD0eNT6AAAAAXNSR0IArs4c6QAAIABJREFUeAHt3V2sZWdZwPFTIlBIjPIhCeHDxs6cIviFjV4Q1Ao0UOzXzF47oFckmhqoVhP1ypuaeEEMEipUIomSmHjTCMyZArWggWAsMR3amb3OtNKPaaHihdJSvWK61z6vWdOZyUw77Zx3n33OXvt5fiSln+fMef/Pf6/3/6695py1Nf9DAAEEEEAAAQQQQAABBBBAAAEEEEAAAQQQQAABBBBAAAEEEEAAAQQQQAABBBBAAAEEEEAAAQQQQAABBBBAAAEEEEAAAQQQQAABBBBAAAEEEEAAAQQQQAABBBBAAAEEEEAAAQQQQAABBBBAAAEEEEAAAQQQQAABBBBAAAEEEEAAAQQQQAABBBBAAAEEEEAAAQQQQAABBBBAAAEEEEAAAQQQQAABBBBAAAEEEEAAAQQQQAABBBBAAAEEEEAAAQQQQAABBBBAAAEEEEAAAQQQQAABBBBAAAEEEEAAAQQQQAABBBBAAAEEEEAAAQQQQAABBBBAAAEEEEAAAQQQQAABBBBAAAEEEEAAAQQQQAABBBBAAAEEEEAAAQQQQAABBBBAAAEEEEAAAQQQQAABBBBAAAEEEEAAAQQQQAABBBBAAAEEEEAAAQQQQAABBBBAAAEEEEAAAQQQQAABBBBAAAEEEEAAAQQQQAABBBBAAAEEEEAAAQQQQAABBBBAAAEEEEAAAQQQQAABBBBAAAEEEEAAAQQQQAABBBBAAAEEEEAAAQQQQAABBBBAAAEEEEAAAQQQQAABBBBAAAEEEEAAAQQQQAABBBBAAAEEEEAAAQQQQAABBBBAAAEEEEAAAQQQQAABBBBAAAEEEEAAAQQQQAABBBBAAAEEEEAAAQQQQAABBBBAAAEEEEAAAQQQQAABBBBAAAEEEEAAAQQQQAABBBBAAAEEEEAAAQQQQAABBBCYm0A5duB1083Re2ft6JaubW7vNpt/nrXNpGubR7u2eaprm5Nd2xR/hGDwf6dn+sRs0tzXTZq7us3RZ2ft+E+7dvyBZ46P3l6O3PTSuWXygQgggAACwyVQjlz3ym7S3DBtm9tOb/RbNvcQm/uiIq0Pvnu7dvTXfRT0gThcm31lCCCAAAIvSqCUW18ybZur+tNe1zb9KXBRm4XPE5/l1qxtjk03R3/2zPHxL7yoaP4lAggggMAwCJTHPnTpbLP5SNc2J2z6omcRDkzb5qH+LYNy7OAbh2G5rwIBBBBA4CyB/jb/rG3+uGub/1rERd/nEA8XcKDr2uaL0+Pjd50Vz18ggAACCCyPQP/+ftc2j1/ggu12ffzb9UuZ8axt7j/1vEC59SXLM9+vjAACCCQlUO7/4GVd29xp43daX5YDpx4qnYxuLGXtkqQvQ8tGAAEE9pZANxndePq3dy3lBLisDcevO9jY+fdnjo9/eW9fBX41BBBAIBGB8vA1L+8mzadshIPdCDMHWde7Wf7j+h9N9JK0VAQQQGD3CZQHD7yma8fftPnb/AfuwOPTycH37P4rwq+AAAIIJCBQ2g++adqOHhj4hT/z6dfaz3/gcqv/xlP9HasEL09LRAABBHaHQJmM3tK1o+/a/J38V9CBe8vk4E/tzivDZ0UAAQQCE+hP/jZ/G/8Kbvzn3hH5wbQdXx34ZWppCCCAwGIJ9O/5u+1v81/xzf9MCHSztvn9xb5CfDYEEEAgIIFTT/t74O/M5uHP57+/vrI8ppvNR33PgIAXLEtCAIHFEfBb/Zz8g5z8LxQrn+5/WNXiXi0+EwIIIBCEQHd83AS++F9oQ/DPgpzwt+3t5uiz7gQEuWBZBgIILIbA6W/v+/S2L6TZNg7rjRNLm6NPLuZV47MggAACAQj43v5u/WeKv2k7+vMAL1tLQAABBHZG4PT3949zwnNaN8ttODCbjG/a2SvHRyOAAAIrTKAcue6VfqSv03+m0/85az05nYx/bYVfvr50BBBAYH4Cs3b8J+dcEJ0ct3FyxCtUMD3pOwbOf/3wkQggsKIETv+Ev+/Z0EJtaCKuMuJm7fhofydsRV/GvmwEEECgnsBss/mIzd/mz4GmdJujf6h/BfkIBBBAYAUJ9N8QpWubEy7+AoADzzqw9fV3lLKx3x8YcIAD8zpwsmysP1U29j9aNvYfKxv7v1I29n2qbKz/XtnYf3W5c/21g8iF6ebBX3fht/lz4FwHRmXrq1fO+8L3cTYNDnDgYg7Mysb+o+Xw+sfL4f3Xlq9ddulSgqBrm79z8T/34u+v+dCU7uiBUr70tou9iP17F3oOcGARDjxdNvZ9phxef+eefYfScs/4FV3b+K5/lQ+L2SBzRNLsW9eWcviKRby4fQ6bBAc4sF0HHiqH1n+n3PHWl+3qXYFu0txgM8uxmZnzfHOeffPd233R+u9c4DnAgUU68EQ5tP+WXXt7YNo2t9kY5tsYcMvDzUOBHoj0UCgHlujAI2Xj8vct/G7ArG0mNrI8G5lZzztrDwUu8eK3yBOVz+WEvroOHNr/j+XO9TcsJATKsQOv69pmy6Yw76bg41K5c/RGDwXaPFZ38zC7KLP7fv+7BnYcAdPN0XtTXcA96Oc7A+7QAQ8Fug3sTggHBuDAVtnY97HyN1e+dO4QmLWjWwSAUzwH6hzwUKANYAAbQJTTrHXs7M7M18sXLvvxuSKga5vbXfzrLv544dU74KFAESACODAQBzbL5/a9sToCunb8VRuaDY0D8zmwdffbnV52dnrBDz8OLMaBE+UL+y6vioBZO25d/Oe7+OOGm+8U6AQ4kBOgTXQxm+iqczxRPvfTr992BHRt87iNzEbGgfkd8FCgCBABHBiMA4f2t+WLb37VtiKga5snXfznv/hjh13vgIcCbQCD2QCchFf9FL+Ir//r2/rdAV3bnLSJ2cQ4sHMHPBQoAkQABwbkwF9c9C6AC//OL/wYYvisA75T4IAufos4Rfkc7iassgNb5fC+G140AmxeNi8OLNABPz54lS+YvnYbfjQHvv+i3zbYxX+BF/8dfoc5s4gxCw8Fug3sTggHhuPA+h0veBfAphNj0zHHYc3RQ4E2gOFsAGaRfhaH1t9/wQiwcQxr4zCPOPPwUKCNJ/3G4y2Fobyl8FD58r6XPy8CbDhxNhyzHNosPRRoAxRBHBiIA4fWbxYA3qf30wD30gEPBQ7lBOTrcBrP7sB3yx1vfdl5EeDUOLRTo68nmpMeChzICcgGmH0DtP7D+35bAOzlCdCv5Y6D7xTowis+ODAIB/Z9u5S1S85GQLTTlvW4gzBUBzwU6E6A98M5sHQHDl3+DgHgZO5kvucO9A8F/qKT0CBOQjaipW9EPFjWteDTAmDPL/5O5kM9me/p1+WhwGVd9Py6NlwOnHJg/amzvyVwTy9+Nl2nbg4UDwU6fTt9c2CpDhxev+bUXQAB4GTOgb13wHcKtAEsdQNwNyD73YBnf1Kgi//eX/wxx7x3wEOBIkAEcGApDhzef8QdALejvSWxVAc8FLiUi5/Tb/bTr/Vv7J+VO9726jWnUadRDizRAQ8FuhgLEg4sw4HDV7xLACz1BLjEjce6B3P3w0OBbgO7E8KBvXdg34cFgI1wMBth5jsRHgq0Aez9BoB5cuafEAACQAAMxAEPBdqQkm9I3grY07cC1u8SAAO5+Gc+/Vr7mbeCPBRoAxRBHNgzB+4XAALAHYAhOeChQKfAPT0F7tlmY67Dm+sjAmBIF39fixjpf3Lgt64t5fAVLpjDu2CaiZlEcuC/BYBN16Y7QAc8FOhk6lY4B3bZgR8KgAFe/L0nfuY98dx/9lCgDWCXN4BIp1lrmePujAAQAO4ADNYBDwXaAEUQB3bPAQEw2It/7tOvuyCn5++hQCe7OU52Ns3d2zQjsRUAAsAdgIE74KFAF/NIm461DMdnATDwi7+TsDshvQMeChzORdMGZhZRHBAAAsAdgBVxwEOBNp4oG491DMNlAbAiF393AtwJ6FoPBdo4hrFxmEOMOQgAAeAOwCo5cOxA2brrZz0Y58E4DnBgxw4IgFW6+PtaxUrvwNEbSvnS23b84neKi3GKM0dznNcBAWBTtamuogP3X1/Kl39GBDgFcoADczsgAFbx4u9rFi29A0dvLFt3//zcL/55Tw0+zomTAzEcEAA2U5vpijsw+8Y7S9lYFwJOghzgQJUDAmDFL/5+d4DfHXDq+wTce03Z+qefq3rxO8XFOMWZoznO64AAEADuAERxYDIqs3ve7dkAp0AhyIFtOSAAolz8rUPInOPA7N73la1/+aVS7nzLti4E854gfJzTJwdW1wEBcM5F0+10t9MjOtDHwOxff/VUEJz6HgJfemspd14hDJwSOZDcAQEgAJycOcABDnAgoQMCIOHQI55yrcndGw5wgAN1DggAAaD8OcABDnAgoQMCIOHQVXJdJeOFFwc4ENEBASAAlD8HOMABDiR0QAAkHHrEkrUmJzQOcIADdQ4IAAGg/DnAAQ5wIKEDAiDh0FVyXSXjhRcHOBDRAQEgAJQ/BzjAAQ4kdEAAJBx6xJK1Jic0DnCAA3UOCAABoPw5wAEOcCChAwIg4dBVcl0l44UXBzgQ0QEBIACUPwc4wAEOJHRAACQcesSStSYnNA5wgAN1DggAAaD8OcABDnAgoQMCIOHQVXJdJeOFFwc4ENEBASAAlD8HOMABDiR0QAAkHHrEkrUmJzQOcIADdQ4IAAGg/DnAAQ5wIKEDAiDh0FVyXSXjhRcHOBDRAQEgAJQ/BzjAAQ4kdEAAJBx6xJK1Jic0DnCAA3UOCAABoPw5wAEOcCChAwIg4dBVcl0l44UXBzgQ0QEBIACUPwc4wAEOJHRAACQcesSStSYnNA5wgAN1DggAAaD8OcABDnAgoQMCIOHQVXJdJeOFFwc4ENEBASAAlD8HOMABDiR0QAAkHHrEkrUmJzQOcIADdQ4IAAGg/DnAAQ5wIKEDAiDh0FVyXSXjhRcHOBDRAQEgAJQ/BzjAAQ4kdEAAJBx6xJK1Jic0DnCAA3UOCAABoPw5wAEOcCChAwIg4dBVcl0l44UXBzgQ0QEBIACUPwc4wAEOJHRAACQcesSStSYnNA5wgAN1DggAAaD8OcABDnAgoQMCIOHQVXJdJeOFFwc4ENEBASAAlD8HOMABDiR0QAAkHHrEkrUmJzQOcIADdQ4IAAGg/DnAAQ5wIKEDAiDh0FVyXSXjhRcHOBDRAQEgAJQ/BzjAAQ4kdEAAJBx6xJK1Jic0DnCAA3UOCAABoPw5wAEOcCChAwIg4dBVcl0l44UXBzgQ0QEBIACUPwc4wAEOJHRAACQcesSStSYnNA5wgAN1DggAAaD8OcABDnAgoQMCIOHQVXJdJeOFFwc4ENEBASAAlD8HOMABDiR0QAAkHHrEkrUmJzQOcIADdQ4IAAGg/DnAAQ5wIKEDAiDh0FVyXSXjhRcHOBDRAQEgAJQ/BzjAAQ4kdEAAJBx6xJK1Jic0DnCAA3UOCAABoPw5wAEOcCChAwIg4dBVcl0l44UXBzgQ0QEBIACUPwc4wAEOJHRAACQcesSStSYnNA5wgAN1DggAAaD8OcABDnAgoQMCIOHQVXJdJeOFFwc4ENEBASAAlD8HOMABDiR0QAAkHHrEkrUmJzQOcIADdQ4IAAGg/DnAAQ5wIKEDAiDh0FVyXSXjhRcHOBDRAQEgAJQ/BzjAAQ4kdEAAJBx6xJK1Jic0DnCAA3UOCAABoPw5wAEOcCChAwIg4dBVcl0l44UXBzgQ0QEBIACUPwc4wAEOJHRAACQcesSStSYnNA5wgAN1DggAAaD8OcABDnAgoQMCIOHQVXJdJeOFFwc4ENEBASAAlD8HOMABDiR0QAAkHHrEkrUmJzQOcIADdQ4IAAGg/DnAAQ5wIKEDAiDh0FVyXSXjhRcHOBDRAQEgAJQ/BzjAAQ4kdEAAJBx6xJK1Jic0DnCAA3UOCAABoPw5wAEOcCChAwIg4dBVcl0l44UXBzgQ0QEBIACUPwc4wAEOJHRAACQcesSStSYnNA5wgAN1DggAAaD8OcABDnAgoQMCIOHQVXJdJeOFFwc4ENEBASAAlD8HOMABDiR0QAAkHHrEkrUmJzQOcIADdQ4IAAGg/DnAAQ5wIKEDAiDh0FVyXSXjhRcHOBDRAQEgAJQ/BzjAAQ4kdEAAJBx6xJK1Jic0DnCAA3UOCAABoPw5wAEOcCChAwIg4dBVcl0l44UXBzgQ0QEBIACUPwc4wAEOJHRAACQcesSStSYnNA5wgAN1DggAAaD8OcABDnAgoQMCIOHQVXJdJeOFFwc4ENEBASAAlD8HOMABDiR0QAAkHHrEkrUmJzQOcIADdQ4IAAGg/DnAAQ5wIKEDAiDh0FVyXSXjhRcHOBDRAQEgAJQ/BzjAAQ4kdEAAJBx6xJK1Jic0DnCAA3UOCAABoPw5wAEOcCChAwIg4dBVcl0l44UXBzgQ0QEBIACUPwc4wAEOJHRAACQcesSStSYnNA5wgAN1DggAAaD8OcABDnAgoQMCIOHQVXJdJeOFFwc4ENEBASAAlD8HOMABDiR0QAAkHHrEkrUmJzQOcIADdQ4IAAGg/DnAAQ5wIKEDAiDh0FVyXSXjhRcHOBDRAQEgAJQ/BzjAAQ4kdEAAJBx6xJK1Jic0DnCAA3UOCAABoPw5wAEOcCChAwIg4dBVcl0l44UXBzgQ0QEBIACUPwc4wAEOJHRAACQcesSStSYnNA5wgAN1DggAAaD8OcABDnAgoQMCIOHQVXJdJeOFFwc4ENEBASAAlD8HOMABDiR0QAAkHHrEkrUmJzQOcIADdQ4IAAGg/DnAAQ5wIKEDAiDh0FVyXSXjhRcHOBDRAQEgAJQ/BzjAAQ4kdEAAJBx6xJK1Jic0DnCAA3UOCAABoPw5wAEOcCChAwIg4dBVcl0l44UXBzgQ0QEBIACUPwc4wAEOJHRAACQcesSStSYnNA5wgAN1DggAAaD8OcABDnAgoQMCIOHQVXJdJeOFFwc4ENEBASAAlD8HOMABDiR0QAAkHHrEkrUmJzQOcIADdQ4IAAGg/DnAAQ5wIKEDAiDh0FVyXSXjhRcHOBDRAQEgAJQ/BzjAAQ4kdEAAJBx6xJK1Jic0DnCAA3UOCAABoPw5wAEOcCChAwIg4dBVcl0l44UXBzgQ0QEBIACUPwc4wAEOJHRAACQcesSStSYnNA5wgAN1DggAAaD8OcABDnAgoQMCIOHQVXJdJeOFFwc4ENEBASAAlD8HOMABDiR0QAAkHHrEkrUmJzQOcIADdQ4IAAGg/DnAAQ5wIKEDAiDh0FVyXSXjhRcHOBDRAQEgAJQ/BzjAAQ4kdEAAJBx6xJK1Jic0DnCAA3UOCAABoPw5wAEOcCChAwIg4dBVcl0l44UXBzgQ0QEBIACUPwc4wAEOJHRAACQcesSStSYnNA5wgAN1DggAAaD8OcABDnAgoQMCIOHQVXJdJeOFFwc4ENEBASAAlD8HOMABDiR0QAAkHHrEkrUmJzQOcIADdQ4IAAGg/DnAAQ5wIKEDAiDh0FVyXSXjhRcHOBDRAQEgAJQ/BzjAAQ4kdEAAJBx6xJK1Jic0DnCAA3UOCAABoPw5wAEOcCChAwIg4dBVcl0l44UXBzgQ0QEBIACUPwc4wAEOJHRAACQcesSStSYnNA5wgAN1DggAAaD8OcABDnAgoQMCIOHQVXJdJeOFFwc4ENEBASAAlD8HOMABDiR0QAAkHHrEkrUmJzQOcIADdQ4IAAGg/DnAAQ5wIKEDAiDh0FVyXSXjhRcHOBDRAQEgAJQ/BzjAAQ4kdEAAJBx6xJK1Jic0DnCAA3UOCAABoPw5wAEOcCChAwIg4dBVcl0l44UXBzgQ0QEBIACUPwc4wAEOJHRAACQcesSStSYnNA5wgAN1DggAAaD8OcABDnAgoQMCIOHQVXJdJeOFFwc4ENEBASAAlD8HOMABDiR0QAAkHHrEkrUmJzQOcIADdQ4IAAGg/DnAAQ5wIKEDAiDh0FVyXSXjhRcHOBDRAQEgAJQ/BzjAAQ4kdEAAJBx6xJK1Jic0DnCAA3UOCAABoPw5wAEOcCChAwIg4dBVcl0l44UXBzgQ0QEBIACUPwc4wAEOJHRAACQcesSStSYnNA5wgAN1DggAAaD8OcABDnAgoQMCIOHQVXJdJeOFFwc4ENEBASAAlD8HOMABDiR0QAAkHHrEkrUmJzQOcIADdQ4IAAGg/DnAAQ5wIKEDAiDh0FVyXSXjhRcHOBDRAQEgAJQ/BzjAAQ4kdEAAJBx6xJK1Jic0DnCAA3UOCAABoPw5wAEOcCChAwIg4dBVcl0l44UXBzgQ0QEBIACUPwc4wAEOJHRAACQcesSStSYnNA5wgAN1DggAAaD8OcABDnAgoQMCIOHQVXJdJeOFFwc4ENEBASAAlD8HOMABDiR0QAAkHHrEkrUmJzQOcIADdQ4IAAGg/DnAAQ5wIKEDAiDh0FVyXSXjhRcHOBDRAQEgAJQ/BzjAAQ4kdEAAJBx6xJK1Jic0DnCAA3UOCAABoPw5wAEOcCChAwIg4dBVcl0l44UXBzgQ0QEBIACUPwc4wAEOJHRAACQcesSStSYnNA5wgAN1DggAAaD8OcABDnAgoQMCIOHQVXJdJeOFFwc4ENEBASAAlD8HOMABDiR0QAAkHHrEkrUmJzQOcIADdQ4IAAGg/DnAAQ5wIKEDAiDh0FVyXSXjhRcHOBDRAQEgAJQ/BzjAAQ4kdEAAJBx6xJK1Jic0DnCAA3UOCAABoPw5wAEOcCChAwIg4dBVcl0l44UXBzgQ0QEBIACUPwc4wAEOJHRAACQcesSStSYnNA5wgAN1DggAAaD8OcABDnAgoQMCIOHQVXJdJeOFFwc4ENEBASAAlD8HOMABDiR0QAAkHHrEkrUmJzQOcIADdQ4IAAGg/DnAAQ5wIKEDAiDh0FVyXSXjhRcHOBDRAQEgAJQ/BzjAAQ4kdEAAJBx6xJK1Jic0DnCAA3UOCAABoPw5wAEOcCChAwIg4dBVcl0l44UXBzgQ0QEBIACUPwc4wAEOJHRAACQcesSStSYnNA5wgAN1DggAAaD8OcABDnAgoQMCIOHQVXJdJeOFFwc4ENEBASAAlD8HOMABDiR0QAAkHHrEkrUmJzQOcIADdQ4IAAGg/DnAAQ5wIKEDAiDh0FVyXSXjhRcHOBDRAQEgAJQ/BzjAAQ4kdEAAJBx6xJK1Jic0DnCAA3UOCAABoPw5wAEOcCChAwIg4dBVcl0l44UXBzgQ0QEBIACUPwc4wAEOJHRAACQcesSStSYnNA5wgAN1DggAAaD8OcABDnAgoQMCIOHQVXJdJeOFFwc4ENEBASAAlD8HOMABDiR0QAAkHHrEkrUmJzQOcIADdQ4IAAGg/DnAAQ5wIKEDAiDh0FVyXSXjhRcHOBDRAQEgAJQ/BzjAAQ4kdEAAJBx6xJK1Jic0DnCAA3UOCAABoPw5wAEOcCChAwIg4dBVcl0l44UXBzgQ0QEBIACUPwc4wAEOJHRAACQcesSStSYnNA5wgAN1DggAAaD8OcABDnAgoQMCIOHQVXJdJeOFFwc4ENEBASAAlD8HOMABDiR0QAAkHHrEkrUmJzQOcIADdQ4IAAGg/DnAAQ5wIKEDAiDh0FVyXSXjhRcHOBDRAQEgAJQ/BzjAAQ4kdEAAJBx6xJK1Jic0DnCAA3UOCAABoPw5wAEOcCChAwIg4dBVcl0l44UXBzgQ0QEBIACUPwc4wAEOJHRAACQcesSStSYnNA5wgAN1DggAAaD8OcABDnAgoQMCIOHQVXJdJeOFFwc4ENGBPgBORlyYNXnBcoADHOAAB17QgR/2AfAkQC8IyG0xd0g4wAEOcCCiA//TB8DjAkAAcIADHOAAB1I5cGJt1o5bQ0819Igla01OaBzgAAcqHJi1zbG1rh1/VQAIAA5wgAMc4EAqB+7u3wK43dBTDV0lV1Sy14bXBgc4ENSBv1qbtaNbgi7ORmej4wAHOMABDlzAgdnm6Oa16ebovQJA4XKAAxzgAAfyODCdHHzPWrlv/BNd22wZfJ7Bm7VZc4ADHEjtwKw8eOA1a/3/Zm0zIUNqGdwiu8AtMq8JrwkOcCCiA7NJc9+pzb//v2k7+kTERVqTFy8HOMABDnDgfAembfOxswHQHR9fD9D5gPDAgwMc4AAHQjowGb3/bACUe8av6Nrm6ZALdWvX7X0OcIADHODAGQee7vf8swHQ/0XXNn8rANQuBzjAAQ5wILADk+Yz523+/d9M2+YqQw88dPV7pn79mQsc4EBaB6bHml95XgCUcutLurZ5VASIAA5wgAMc4EBIBx4uZe2S5wVA/w9m7fjDhh5y6Glrl8985gAHOPCsA7PJ+KYLbv79PywPX/PybtJ8DywvGA5wgAMc4EAoB57o9/gXDIBn7wI0f2TooYbu9O/9Tg5wgAPJHeh/7s+Lbv6n7gIcue6V3eboMREgAjjAAQ5wgAMRHBg9Uh770KUXDYD+P+gmzTWGHmHo1sBjDnCAAxwY/8a2Nv8z/1E3aTZA88LhAAc4wAEOrLQDnz+zr2/7z+X4+M1d2/zA4Fd68N73S/6+n9ev1y8HUjvwVGk/+KZtb/zn/odd21zrRwWnlkdACAgOcIADq+nAVteOD5y7p1f/9bRtblOQIoADHOAABziwOg5MJ83Hqzf8537Aqe8N0Db/ZvCrM3izMisOcIADiR3YbL5Rjo9f9tz9fK6/L0fGPzZrx0cJlVio1bwF5taluXGAA6kcmE2azXJ8/Oq5NvsX+qBydPyGrm0eFwEigAMc4AAHODBIB57oH+B/oX18R/+8HBtf0bXNdwx+kINPVbkc5CAHOMCB8xz4Tjn6gfUdbfIX++DywMHXz9rmGPDngbf5us3IAQ5wgANLcWDaNsfn/u1+F9v0n/vv+/cXOg8GLmXQwkt4cYADHODAWQf6B/4mv/Wq5+7Tu/r35WtX/ch0s/mo7xNAxLMiqn9RyAEOcGCvHNjqf5v+wp72n6cYuklzQ9c2T9kEhAAHOMDJOgVdAAADdklEQVQBDnBgTxz4327SjOfZsxf+MeWBgz/pZwfsydD3qiz9Ok4xHOAAB4bpwOf37P3+mlo4/a2DTyhAMcABDnCAAxxYqAOPdm3lT/Wr2cAX8d+We8avmG02f9i1zX8a/kKHr8aHWePmYi4c4MBuOvDErB3/QXnsQ5cuYo/ek8/Rfwvh2aT53a4dPSIEhAAHOMABDnCgyoGHZ5PxTUt9yG8RtfDMZHzl6R8q9H0CVAmwm1Xpczu1cIADHBiWA0937ejvp5OD7yll7ZJF7L+D+Rz9LYz+PYz+pxTN2ub+rm1mgkAQcIADHOBAUgdms0lz33Rz9JfdZPT+lbrNv9OyKN/+zddO2/HVs83Rzd3m6JNd23zl9A8derRrmye7tjmZVApVPqwqNw/z4AAH5nGg38P6vezR03vb3f1e1+95p075Dx54zU73UR+PAAIIIIAAAggggAACCCCAAAIIIIAAAggggAACCCCAAAIIIIAAAggggAACCCCAAAIIIIAAAggggAACCCCAAAIIIIAAAggggAACCCCAAAIIIIAAAggggAACCCCAAAIIIIAAAggggAACCCCAAAIIIIAAAggggAACCCCAAAIIIIAAAggggAACCCCAAAIIIIAAAggggAACCCCAAAIIIIAAAggggAACCCCAAAIIIIAAAggggAACCCCAAAIIIIAAAggggAACCCCAAAIIIIAAAggggAACCCCAAAIIIIAAAggggAACCCCAAAIIIIAAAggggAACCCCAAAIIIIAAAggggAACCCCAAAIIIIAAAggggAACCCCAAAIIIIAAAggggAACCCCAAAIIIIAAAggggAACCCCAAAIIIIAAAggggAACCCCAAAIIIIAAAggggAACCCCAAAIIIIAAAggggAACCCCAAAIIIIAAAggggAACCCCAAAIIIIAAAggggAACCCCAAAIIIIAAAggggAACCCCAAAIIIIAAAggggAACCCCAAAIIIIAAAggggAACCCCAAAIIIIAAAggggAACCCCAAAIIIIAAAggggAACCCCAAAIIIIAAAggggAACCCCAAAIIIIAAAggggAACCCCAAAIIIIAAAggggAACCCCAAAIIIIAAAggggAACCCCAAAIIIIAAAggggAACCCCAAAIIIIAAAggggAACCCCAAAIIIIAAAggggAACCGQm8P81IGYrl8k4gQAAAABJRU5ErkJggg==;" parent="1" vertex="1">
          <mxGeometry x="-238" y="390" width="76" height="76" as="geometry" />
        </mxCell>
        <mxCell id="bPwNBFr8PuWMEGsc4J3Q-3" value="CRM" style="text;html=1;align=center;verticalAlign=middle;whiteSpace=wrap;rounded=0;fontStyle=1" parent="1" vertex="1">
          <mxGeometry x="-230" y="259" width="60" height="30" as="geometry" />
        </mxCell>
        <mxCell id="bPwNBFr8PuWMEGsc4J3Q-4" value="ERP" style="text;html=1;align=center;verticalAlign=middle;whiteSpace=wrap;rounded=0;fontStyle=1" parent="1" vertex="1">
          <mxGeometry x="-230" y="466" width="60" height="30" as="geometry" />
        </mxCell>
        <mxCell id="bPwNBFr8PuWMEGsc4J3Q-5" value="" style="rounded=1;whiteSpace=wrap;html=1;strokeColor=#d79b00;dashed=1;fillColor=#ffe6cc;fillStyle=hatch;" parent="1" vertex="1">
          <mxGeometry x="-30" y="120" width="240" height="440" as="geometry" />
        </mxCell>
        <mxCell id="bPwNBFr8PuWMEGsc4J3Q-6" value="&lt;font style=&quot;font-size: 20px;&quot;&gt;Bronze Layer&lt;/font&gt;" style="rounded=1;whiteSpace=wrap;html=1;fillStyle=auto;fillColor=#ffe6cc;strokeColor=#d79b00;" parent="1" vertex="1">
          <mxGeometry x="-20" y="60" width="220" height="50" as="geometry" />
        </mxCell>
        <mxCell id="xMGDJ-q2eJ9jDZm_Mkrr-9" style="edgeStyle=orthogonalEdgeStyle;rounded=0;orthogonalLoop=1;jettySize=auto;html=1;entryX=0;entryY=0.5;entryDx=0;entryDy=0;" parent="1" source="bPwNBFr8PuWMEGsc4J3Q-7" target="xMGDJ-q2eJ9jDZm_Mkrr-3" edge="1">
          <mxGeometry relative="1" as="geometry" />
        </mxCell>
        <mxCell id="bPwNBFr8PuWMEGsc4J3Q-7" value="&lt;font&gt;crm_cust_info&lt;/font&gt;" style="rounded=1;whiteSpace=wrap;html=1;fillStyle=auto;fillColor=#ffe6cc;strokeColor=#d79b00;fontSize=12;" parent="1" vertex="1">
          <mxGeometry x="-10" y="160" width="200" height="36" as="geometry" />
        </mxCell>
        <mxCell id="xMGDJ-q2eJ9jDZm_Mkrr-14" style="edgeStyle=orthogonalEdgeStyle;rounded=0;orthogonalLoop=1;jettySize=auto;html=1;" parent="1" source="bPwNBFr8PuWMEGsc4J3Q-8" target="xMGDJ-q2eJ9jDZm_Mkrr-4" edge="1">
          <mxGeometry relative="1" as="geometry" />
        </mxCell>
        <mxCell id="bPwNBFr8PuWMEGsc4J3Q-8" value="&lt;font&gt;erp_px_cat_g1v2&lt;/font&gt;" style="rounded=1;whiteSpace=wrap;html=1;fillStyle=auto;fillColor=#ffe6cc;strokeColor=#d79b00;fontSize=12;" parent="1" vertex="1">
          <mxGeometry x="-10" y="460" width="200" height="36" as="geometry" />
        </mxCell>
        <mxCell id="xMGDJ-q2eJ9jDZm_Mkrr-13" style="edgeStyle=orthogonalEdgeStyle;rounded=0;orthogonalLoop=1;jettySize=auto;html=1;" parent="1" source="bPwNBFr8PuWMEGsc4J3Q-9" target="xMGDJ-q2eJ9jDZm_Mkrr-5" edge="1">
          <mxGeometry relative="1" as="geometry" />
        </mxCell>
        <mxCell id="bPwNBFr8PuWMEGsc4J3Q-9" value="&lt;font&gt;erp_loc_a101&lt;/font&gt;" style="rounded=1;whiteSpace=wrap;html=1;fillStyle=auto;fillColor=#ffe6cc;strokeColor=#d79b00;fontSize=12;" parent="1" vertex="1">
          <mxGeometry x="-10" y="410" width="200" height="36" as="geometry" />
        </mxCell>
        <mxCell id="xMGDJ-q2eJ9jDZm_Mkrr-12" style="edgeStyle=orthogonalEdgeStyle;rounded=0;orthogonalLoop=1;jettySize=auto;html=1;entryX=0;entryY=0.5;entryDx=0;entryDy=0;" parent="1" source="bPwNBFr8PuWMEGsc4J3Q-10" target="xMGDJ-q2eJ9jDZm_Mkrr-6" edge="1">
          <mxGeometry relative="1" as="geometry" />
        </mxCell>
        <mxCell id="bPwNBFr8PuWMEGsc4J3Q-10" value="&lt;font&gt;erp_cust_az12&lt;/font&gt;" style="rounded=1;whiteSpace=wrap;html=1;fillStyle=auto;fillColor=#ffe6cc;strokeColor=#d79b00;fontSize=12;" parent="1" vertex="1">
          <mxGeometry x="-10" y="360" width="200" height="36" as="geometry" />
        </mxCell>
        <mxCell id="xMGDJ-q2eJ9jDZm_Mkrr-10" style="edgeStyle=orthogonalEdgeStyle;rounded=0;orthogonalLoop=1;jettySize=auto;html=1;" parent="1" source="bPwNBFr8PuWMEGsc4J3Q-11" target="xMGDJ-q2eJ9jDZm_Mkrr-7" edge="1">
          <mxGeometry relative="1" as="geometry" />
        </mxCell>
        <mxCell id="bPwNBFr8PuWMEGsc4J3Q-11" value="&lt;font&gt;crm_prd_info&lt;/font&gt;" style="rounded=1;whiteSpace=wrap;html=1;fillStyle=auto;fillColor=#ffe6cc;strokeColor=#d79b00;fontSize=12;" parent="1" vertex="1">
          <mxGeometry x="-10" y="210" width="200" height="36" as="geometry" />
        </mxCell>
        <mxCell id="xMGDJ-q2eJ9jDZm_Mkrr-11" style="edgeStyle=orthogonalEdgeStyle;rounded=0;orthogonalLoop=1;jettySize=auto;html=1;entryX=0;entryY=0.5;entryDx=0;entryDy=0;" parent="1" source="bPwNBFr8PuWMEGsc4J3Q-12" target="xMGDJ-q2eJ9jDZm_Mkrr-8" edge="1">
          <mxGeometry relative="1" as="geometry" />
        </mxCell>
        <mxCell id="bPwNBFr8PuWMEGsc4J3Q-12" value="&lt;font&gt;crm_sales_details&lt;/font&gt;" style="rounded=1;whiteSpace=wrap;html=1;fillStyle=auto;fillColor=#ffe6cc;strokeColor=#d79b00;fontSize=12;" parent="1" vertex="1">
          <mxGeometry x="-10" y="259" width="200" height="36" as="geometry" />
        </mxCell>
        <mxCell id="xMGDJ-q2eJ9jDZm_Mkrr-1" value="" style="rounded=1;whiteSpace=wrap;html=1;strokeColor=#666666;dashed=1;fillColor=#f5f5f5;fillStyle=hatch;fontColor=#333333;" parent="1" vertex="1">
          <mxGeometry x="280" y="120" width="240" height="440" as="geometry" />
        </mxCell>
        <mxCell id="xMGDJ-q2eJ9jDZm_Mkrr-2" value="&lt;font style=&quot;font-size: 20px;&quot;&gt;Bronze Layer&lt;/font&gt;" style="rounded=1;whiteSpace=wrap;html=1;fillStyle=auto;fillColor=#f5f5f5;strokeColor=#666666;fontColor=#333333;" parent="1" vertex="1">
          <mxGeometry x="290" y="60" width="220" height="50" as="geometry" />
        </mxCell>
        <mxCell id="xMGDJ-q2eJ9jDZm_Mkrr-3" value="&lt;font&gt;crm_cust_info&lt;/font&gt;" style="rounded=1;whiteSpace=wrap;html=1;fillStyle=auto;fillColor=#f5f5f5;strokeColor=#666666;fontSize=12;fontColor=#333333;" parent="1" vertex="1">
          <mxGeometry x="300" y="160" width="200" height="36" as="geometry" />
        </mxCell>
        <mxCell id="xMGDJ-q2eJ9jDZm_Mkrr-4" value="&lt;font&gt;erp_px_cat_g1v2&lt;/font&gt;" style="rounded=1;whiteSpace=wrap;html=1;fillStyle=auto;fillColor=#f5f5f5;strokeColor=#666666;fontSize=12;fontColor=#333333;" parent="1" vertex="1">
          <mxGeometry x="300" y="460" width="200" height="36" as="geometry" />
        </mxCell>
        <mxCell id="xMGDJ-q2eJ9jDZm_Mkrr-5" value="&lt;font&gt;erp_loc_a101&lt;/font&gt;" style="rounded=1;whiteSpace=wrap;html=1;fillStyle=auto;fillColor=#f5f5f5;strokeColor=#666666;fontSize=12;fontColor=#333333;" parent="1" vertex="1">
          <mxGeometry x="300" y="410" width="200" height="36" as="geometry" />
        </mxCell>
        <mxCell id="xMGDJ-q2eJ9jDZm_Mkrr-6" value="&lt;font&gt;erp_cust_az12&lt;/font&gt;" style="rounded=1;whiteSpace=wrap;html=1;fillStyle=auto;fillColor=#f5f5f5;strokeColor=#666666;fontSize=12;fontColor=#333333;" parent="1" vertex="1">
          <mxGeometry x="300" y="360" width="200" height="36" as="geometry" />
        </mxCell>
        <mxCell id="xMGDJ-q2eJ9jDZm_Mkrr-7" value="&lt;font&gt;crm_prd_info&lt;/font&gt;" style="rounded=1;whiteSpace=wrap;html=1;fillStyle=auto;fillColor=#f5f5f5;strokeColor=#666666;fontSize=12;fontColor=#333333;" parent="1" vertex="1">
          <mxGeometry x="300" y="210" width="200" height="36" as="geometry" />
        </mxCell>
        <mxCell id="xMGDJ-q2eJ9jDZm_Mkrr-8" value="&lt;font&gt;crm_sales_details&lt;/font&gt;" style="rounded=1;whiteSpace=wrap;html=1;fillStyle=auto;fillColor=#f5f5f5;strokeColor=#666666;fontSize=12;fontColor=#333333;" parent="1" vertex="1">
          <mxGeometry x="300" y="259" width="200" height="36" as="geometry" />
        </mxCell>
        <mxCell id="uYobfBQs-Q_dXESjv1zV-1" value="" style="rounded=1;whiteSpace=wrap;html=1;strokeColor=#666666;dashed=1;fillColor=#f5f5f5;fillStyle=hatch;fontColor=#333333;" vertex="1" parent="1">
          <mxGeometry x="620" y="120" width="240" height="440" as="geometry" />
        </mxCell>
        <mxCell id="uYobfBQs-Q_dXESjv1zV-2" value="&lt;font style=&quot;font-size: 20px;&quot;&gt;Gold Layer&lt;/font&gt;" style="rounded=1;whiteSpace=wrap;html=1;fillStyle=auto;fillColor=#f5f5f5;strokeColor=#666666;fontColor=#333333;" vertex="1" parent="1">
          <mxGeometry x="630" y="60" width="220" height="50" as="geometry" />
        </mxCell>
        <mxCell id="uYobfBQs-Q_dXESjv1zV-3" value="fact_sales" style="rounded=1;whiteSpace=wrap;html=1;fillStyle=auto;fillColor=#f5f5f5;strokeColor=#666666;fontSize=12;fontColor=#333333;" vertex="1" parent="1">
          <mxGeometry x="640" y="190" width="200" height="36" as="geometry" />
        </mxCell>
        <mxCell id="uYobfBQs-Q_dXESjv1zV-7" value="&lt;font&gt;dim_customers&lt;/font&gt;" style="rounded=1;whiteSpace=wrap;html=1;fillStyle=auto;fillColor=#f5f5f5;strokeColor=#666666;fontSize=12;fontColor=#333333;" vertex="1" parent="1">
          <mxGeometry x="640" y="320" width="200" height="36" as="geometry" />
        </mxCell>
        <mxCell id="uYobfBQs-Q_dXESjv1zV-8" value="&lt;font&gt;dim_products&lt;/font&gt;" style="rounded=1;whiteSpace=wrap;html=1;fillStyle=auto;fillColor=#f5f5f5;strokeColor=#666666;fontSize=12;fontColor=#333333;" vertex="1" parent="1">
          <mxGeometry x="640" y="460" width="200" height="36" as="geometry" />
        </mxCell>
        <mxCell id="uYobfBQs-Q_dXESjv1zV-9" value="" style="endArrow=classic;html=1;rounded=0;exitX=1;exitY=0.5;exitDx=0;exitDy=0;entryX=0;entryY=0.5;entryDx=0;entryDy=0;jumpStyle=gap;" edge="1" parent="1" source="xMGDJ-q2eJ9jDZm_Mkrr-3" target="uYobfBQs-Q_dXESjv1zV-3">
          <mxGeometry width="50" height="50" relative="1" as="geometry">
            <mxPoint x="580" y="360" as="sourcePoint" />
            <mxPoint x="630" y="310" as="targetPoint" />
          </mxGeometry>
        </mxCell>
        <mxCell id="uYobfBQs-Q_dXESjv1zV-10" value="" style="endArrow=classic;html=1;rounded=0;exitX=1;exitY=0.5;exitDx=0;exitDy=0;entryX=0;entryY=0.5;entryDx=0;entryDy=0;jumpStyle=gap;" edge="1" parent="1" source="xMGDJ-q2eJ9jDZm_Mkrr-7" target="uYobfBQs-Q_dXESjv1zV-7">
          <mxGeometry width="50" height="50" relative="1" as="geometry">
            <mxPoint x="510" y="188" as="sourcePoint" />
            <mxPoint x="650" y="218" as="targetPoint" />
          </mxGeometry>
        </mxCell>
        <mxCell id="uYobfBQs-Q_dXESjv1zV-11" value="" style="endArrow=classic;html=1;rounded=0;exitX=1;exitY=0.5;exitDx=0;exitDy=0;entryX=0;entryY=0.5;entryDx=0;entryDy=0;jumpStyle=gap;" edge="1" parent="1" source="xMGDJ-q2eJ9jDZm_Mkrr-8" target="uYobfBQs-Q_dXESjv1zV-8">
          <mxGeometry width="50" height="50" relative="1" as="geometry">
            <mxPoint x="500" y="310" as="sourcePoint" />
            <mxPoint x="640" y="420" as="targetPoint" />
          </mxGeometry>
        </mxCell>
        <mxCell id="uYobfBQs-Q_dXESjv1zV-12" value="" style="endArrow=classic;html=1;rounded=0;exitX=1;exitY=0.5;exitDx=0;exitDy=0;entryX=0;entryY=0.5;entryDx=0;entryDy=0;jumpStyle=gap;" edge="1" parent="1" source="xMGDJ-q2eJ9jDZm_Mkrr-6" target="uYobfBQs-Q_dXESjv1zV-7">
          <mxGeometry width="50" height="50" relative="1" as="geometry">
            <mxPoint x="580" y="360" as="sourcePoint" />
            <mxPoint x="630" y="310" as="targetPoint" />
          </mxGeometry>
        </mxCell>
        <mxCell id="uYobfBQs-Q_dXESjv1zV-13" value="" style="endArrow=classic;html=1;rounded=0;exitX=1;exitY=0.5;exitDx=0;exitDy=0;entryX=0;entryY=0.5;entryDx=0;entryDy=0;jumpStyle=gap;" edge="1" parent="1" source="xMGDJ-q2eJ9jDZm_Mkrr-5" target="uYobfBQs-Q_dXESjv1zV-7">
          <mxGeometry width="50" height="50" relative="1" as="geometry">
            <mxPoint x="510" y="388" as="sourcePoint" />
            <mxPoint x="650" y="348" as="targetPoint" />
          </mxGeometry>
        </mxCell>
        <mxCell id="uYobfBQs-Q_dXESjv1zV-14" value="" style="endArrow=classic;html=1;rounded=0;exitX=1;exitY=0.5;exitDx=0;exitDy=0;entryX=0;entryY=0.5;entryDx=0;entryDy=0;jumpStyle=gap;" edge="1" parent="1" source="xMGDJ-q2eJ9jDZm_Mkrr-4" target="uYobfBQs-Q_dXESjv1zV-8">
          <mxGeometry width="50" height="50" relative="1" as="geometry">
            <mxPoint x="510" y="438" as="sourcePoint" />
            <mxPoint x="650" y="348" as="targetPoint" />
          </mxGeometry>
        </mxCell>
      </root>
    </mxGraphModel>
  </diagram>
</mxfile>
